<svg width="104" height="104" viewBox="0 0 104 104" fill="none" xmlns="http://www.w3.org/2000/svg">
<rect x="1.77348" y="15.267" width="88" height="88" rx="19" transform="rotate(-8.82041 1.77348 15.267)" fill="url(#paint0_linear)" fill-opacity="0.9" stroke="url(#paint1_linear)" stroke-width="2"/>
<g clip-path="url(#clip0)">
<path d="M29.4058 34.7527C28.6884 35.731 28.8998 37.1056 29.8781 37.8231L31.1828 38.7799C32.1611 39.4973 33.5357 39.2859 34.2531 38.3076C34.9706 37.3294 34.7591 35.9547 33.7809 35.2373L32.4762 34.2805C31.4979 33.563 30.1233 33.7745 29.4058 34.7527ZM48.5581 23.2093C47.3392 23.3968 46.503 24.5369 46.6905 25.7559L47.077 28.2687C47.2645 29.4876 48.4047 30.3238 49.6236 30.1363C50.8426 29.9488 51.6787 28.8087 51.4912 27.5897L51.1047 25.0769C50.9172 23.8579 49.7771 23.0218 48.5581 23.2093ZM29.211 57.9698C30.4299 57.7824 31.2661 56.6422 31.0786 55.4233C30.8911 54.2043 29.751 53.3682 28.532 53.5557L25.8936 53.9615C24.6746 54.149 23.8385 55.2891 24.0259 56.5081C24.2134 57.727 25.3536 58.5632 26.5725 58.3757L29.211 57.9698ZM63.001 66.464C62.8109 65.2277 63.3109 64.0293 64.1592 63.1859C65.6908 61.663 66.8792 59.8761 67.7248 57.8208C68.7812 55.2534 69.0925 52.5526 68.6549 49.7078C67.9923 45.3997 65.9103 41.9687 62.393 39.3892C58.8757 36.8096 54.9776 35.8549 50.6694 36.5176C46.3613 37.1802 42.9303 39.2623 40.3508 42.7796C37.7713 46.2969 36.8165 50.1949 37.4792 54.5031C37.9172 57.3506 39.0065 59.8379 40.7456 61.9761C42.1349 63.6842 43.8103 65.0292 45.7753 66.0142C46.8601 66.558 47.7188 67.5599 47.9118 68.8146L48.8764 75.0859C49.2542 77.5423 51.5518 79.2273 54.0082 78.8495L60.2065 77.8961C62.6629 77.5183 64.3479 75.2207 63.9701 72.7643L63.001 66.464ZM74.9106 48.6813C75.0981 49.9002 76.2382 50.7364 77.4572 50.5489L80.0956 50.1431C81.3146 49.9556 82.1507 48.8155 81.9632 47.5965C81.7757 46.3776 80.6356 45.5414 79.4167 45.7289L76.7782 46.1347C75.5593 46.3222 74.7231 47.4624 74.9106 48.6813ZM66.2774 30.2263C65.5606 31.2037 65.784 32.5788 66.7734 33.279C67.7305 33.9562 69.0524 33.7502 69.758 32.8139L70.7317 31.5218C71.4626 30.5518 71.2594 29.1714 70.28 28.4532C69.3096 27.7415 67.9459 27.9512 67.2342 28.9217L66.2774 30.2263Z" fill="#9DA2C8" stroke="#6668AA"/>
</g>
<defs>
<linearGradient id="paint0_linear" x1="45.4992" y1="-14.4358" x2="45.4993" y2="129.055" gradientUnits="userSpaceOnUse">
<stop stop-color="#4C5E9D"/>
<stop offset="1" stop-color="#171836"/>
</linearGradient>
<linearGradient id="paint1_linear" x1="45.632" y1="14.4321" x2="45.632" y2="104.432" gradientUnits="userSpaceOnUse">
<stop stop-color="#3F458D" stop-opacity="0.63"/>
<stop offset="1" stop-color="#3F458D" stop-opacity="0.14"/>
</linearGradient>
<clipPath id="clip0">
<rect width="60" height="56.9492" fill="white" transform="matrix(0.988376 -0.152026 -0.152026 -0.988376 27.6577 83.4084)"/>
</clipPath>
</defs>
</svg>
