<svg width="56" height="56" viewBox="0 0 64 64" fill="none" xmlns="http://www.w3.org/2000/svg">
<g filter="url(#filter0_d)">
<rect x="4.5" y="0.5" width="55" height="55" rx="7.5" stroke="url(#paint0_linear)"/>
<path d="M44.3409 28.7004C46.7414 26.663 47.9417 25.6442 47.6238 24.6839C47.3059 23.7235 45.7349 23.6221 42.5928 23.4194L38.8135 23.1755C37.8941 23.1162 37.4344 23.0865 37.083 22.8315C36.7317 22.5764 36.5611 22.1485 36.2199 21.2927L34.7727 17.6621C33.5927 14.7022 33.0028 13.2222 31.9859 13.2222C30.9691 13.2222 30.3791 14.7021 29.1992 17.662L27.7518 21.2929C27.4106 22.1486 27.2401 22.5765 26.8888 22.8315C26.5375 23.0866 26.0779 23.1163 25.1586 23.1758L21.3909 23.4194C18.2548 23.6222 16.6868 23.7236 16.3685 24.683C16.0503 25.6424 17.2469 26.6608 19.6401 28.6977L22.5877 31.2065C23.2806 31.7962 23.6271 32.0911 23.7572 32.5003C23.8874 32.9095 23.7751 33.3503 23.5503 34.232L22.5854 38.0174C21.7966 41.1119 21.4022 42.6592 22.2258 43.2572C23.0494 43.8552 24.3986 43.0013 27.0969 41.2933L30.3815 39.2144C31.1612 38.7208 31.5511 38.474 31.9859 38.474C32.4208 38.474 32.8106 38.7208 33.5904 39.2144L36.8749 41.2933C39.5732 43.0012 40.9224 43.8552 41.746 43.2572C42.5696 42.6592 42.1752 41.1119 41.3864 38.0174L40.4222 34.2348C40.1971 33.3518 40.0846 32.9103 40.2152 32.5007C40.3459 32.0911 40.6932 31.7962 41.388 31.2066L44.3409 28.7004Z" fill="#3BF5BD"/>
<path d="M41.388 31.2066C40.6932 31.7962 40.3458 32.0911 40.2152 32.5007C40.0846 32.9103 40.1971 33.3518 40.4222 34.2348L41.3864 38.0174C42.1752 41.1119 42.5696 42.6592 41.746 43.2572C40.9224 43.8552 39.5732 43.0012 36.8748 41.2933L33.3814 39.0821C32.699 38.6502 32.3578 38.4342 32.1719 38.0964C31.9859 37.7586 31.9859 37.3548 31.9859 36.5472V22.5591C31.9859 19.4666 31.9859 17.9203 32.3583 17.4958C32.8108 16.98 33.5557 16.837 34.167 17.1486C34.6702 17.405 35.2427 18.8414 36.3879 21.714C36.5647 22.1575 36.6531 22.3792 36.7915 22.5528C36.9606 22.7649 37.1842 22.9272 37.4383 23.0224C37.6462 23.1002 37.8844 23.1156 38.3608 23.1463L42.5927 23.4194C45.7348 23.6221 47.3059 23.7235 47.6238 24.6839C47.9417 25.6442 46.7414 26.663 44.3408 28.7004L41.388 31.2066Z" fill="#0CF3AD"/>
</g>
<defs>
<filter id="filter0_d" x="0" y="0" width="64" height="64" filterUnits="userSpaceOnUse" color-interpolation-filters="sRGB">
<feFlood flood-opacity="0" result="BackgroundImageFix"/>
<feColorMatrix in="SourceAlpha" type="matrix" values="0 0 0 0 0 0 0 0 0 0 0 0 0 0 0 0 0 0 127 0" result="hardAlpha"/>
<feOffset dy="4"/>
<feGaussianBlur stdDeviation="2"/>
<feComposite in2="hardAlpha" operator="out"/>
<feColorMatrix type="matrix" values="0 0 0 0 0 0 0 0 0 0 0 0 0 0 0 0 0 0 0.25 0"/>
<feBlend mode="normal" in2="BackgroundImageFix" result="effect1_dropShadow"/>
<feBlend mode="normal" in="SourceGraphic" in2="effect1_dropShadow" result="shape"/>
</filter>
<linearGradient id="paint0_linear" x1="60" y1="56" x2="-7" y2="4.5" gradientUnits="userSpaceOnUse">
<stop stop-color="#3BF5BD"/>
<stop offset="1" stop-color="#2C2E59"/>
</linearGradient>
</defs>
</svg>
