<svg width="98" height="98" viewBox="0 0 98 98" fill="none" xmlns="http://www.w3.org/2000/svg">
<path d="M108 -117L215 -10.0001L108 96.9999C108 96.9999 89.5 53.5 59 38C28.5 22.5 1.00006 -10.0001 1.00006 -10.0001L108 -117Z" fill="#F5453D"/>
<path d="M48.4217 14.411L49.7529 15.2638L51.3435 12.7807L52.7501 13.6817C54.4474 14.7689 56.0116 14.3337 56.9173 12.9199C57.816 11.5169 57.575 9.91009 55.8849 8.82747L53.1291 7.06217L48.4217 14.411ZM52.0446 11.6862L53.7478 9.02731L54.9678 9.80882C55.9654 10.4478 56.062 11.2688 55.5609 12.051C55.0598 12.8333 54.2622 13.1067 53.2718 12.4723L52.0446 11.6862ZM57.1234 20.1369C58.7381 21.1713 60.493 20.6912 61.5848 18.9867C62.679 17.2787 62.3836 15.4802 60.7689 14.4459C59.1542 13.4115 57.397 13.8952 56.3029 15.6032C55.2111 17.3077 55.5087 19.1025 57.1234 20.1369ZM57.7972 19.1009C56.9037 18.5285 56.9762 17.4515 57.6221 16.4432C58.268 15.4349 59.2229 14.908 60.1164 15.4803C60.9955 16.0435 60.9161 17.1312 60.2702 18.1396C59.6243 19.1479 58.6763 19.664 57.7972 19.1009ZM59.6119 24.4941L60.9108 25.3262L62.791 22.3909L62.8449 22.4254C62.792 22.9583 62.8581 23.7952 63.8054 24.402C65.1044 25.2341 66.7365 24.8272 67.8996 23.0115C69.0764 21.1743 68.7143 19.5355 67.4404 18.7195C66.468 18.0966 65.6879 18.4217 65.2354 18.6936L65.16 18.6453L65.7439 17.7339L64.4664 16.9156L59.6119 24.4941ZM63.975 20.4874C64.6599 19.4181 65.5629 19.0198 66.3989 19.5553C67.2637 20.1093 67.2375 21.1299 66.5801 22.1562C65.9181 23.1896 64.9833 23.6535 64.1257 23.1042C63.2968 22.5732 63.29 21.5567 63.975 20.4874ZM72.249 26.405C71.7112 27.2446 70.8453 27.277 70.2712 26.9092C69.6468 26.5093 69.5133 25.8013 69.9615 25.1016L72.0808 21.7932L70.7818 20.9611L68.5338 24.4704C67.6857 25.7945 67.9588 27.0272 69.0425 27.7213C69.8678 28.25 70.7272 28.1882 71.3737 27.7319L71.4311 27.7687L70.8036 28.7483L72.0631 29.5551L75.5937 24.0435L74.2948 23.2114L72.249 26.405ZM79.4053 23.894L78.1063 23.0619L73.3989 30.4107L74.6978 31.2428L79.4053 23.894ZM77.5483 33.2256C78.4131 33.7796 79.1896 33.7051 79.7229 33.3939L79.766 33.4215L79.281 34.1786L80.5297 34.9785L82.8926 31.2898C83.8258 29.8329 82.9185 28.6343 81.8672 27.9608C80.7081 27.2184 79.4873 27.1651 78.5566 27.9859L79.6591 28.9351C80.0296 28.641 80.6025 28.5526 81.2376 28.9594C81.8405 29.3456 81.9729 29.8656 81.6258 30.4075L81.612 30.429C81.373 30.8022 80.9704 30.5696 79.9313 30.0507C78.7884 29.4806 77.5612 29.1448 76.7659 30.3864C76.0717 31.47 76.497 32.5522 77.5483 33.2256ZM78.497 32.4872C77.9552 32.1401 77.7263 31.6443 78.032 31.1671C78.3515 30.6683 78.919 30.7383 79.5532 31.0281C79.9239 31.1998 80.6609 31.5504 80.9169 31.5221L80.5008 32.1716C80.1078 32.7852 79.2793 32.9883 78.497 32.4872ZM81.8358 35.8152L83.1348 36.6473L85.2104 33.4071C85.6586 32.7073 86.5033 32.55 87.2174 33.0075C87.4362 33.1477 87.6837 33.3618 87.7719 33.469L88.5373 32.2741C88.4327 32.1767 88.2374 32.0313 88.0939 31.9394C87.4623 31.5348 86.705 31.5558 86.0949 32.0658L86.0375 32.029L86.6259 31.1104L85.3664 30.3036L81.8358 35.8152Z" fill="white" fill-opacity="0.8"/>
</svg>
